<svg width="635" height="537" viewBox="0 0 635 537" fill="none" xmlns="http://www.w3.org/2000/svg">
<path d="M626.439 403.868C628.256 405.127 630.749 404.676 632.008 402.861C633.266 401.045 632.813 398.552 630.996 397.293C629.179 396.033 626.685 396.484 625.427 398.299C624.168 400.115 624.621 402.608 626.439 403.868Z" fill="#5DC8F0"/>
<path d="M38.2901 432.868C40.1073 434.127 42.6006 433.676 43.8591 431.861C45.1175 430.045 44.6646 427.552 42.8474 426.293C41.0302 425.033 38.5369 425.484 37.2785 427.299C36.02 429.115 36.4729 431.608 38.2901 432.868Z" fill="#5DC8F0"/>
<path d="M16.2901 8.86758C18.1073 10.1271 20.6006 9.67632 21.8591 7.86069C23.1175 6.04505 22.6646 3.55212 20.8474 2.29257C19.0302 1.03303 16.5369 1.48383 15.2785 3.29946C14.02 5.1151 14.4729 7.60803 16.2901 8.86758Z" fill="#F99201"/>
<path d="M499.263 63.1763C502.169 65.1909 506.157 64.4698 508.17 61.5658C510.183 58.6617 509.459 54.6743 506.552 52.6597C503.646 50.6451 499.658 51.3662 497.645 54.2702C495.632 57.1743 496.356 61.1616 499.263 63.1763Z" fill="#F89203"/>
<path d="M5.20263 286.014C8.07594 288.006 12.0183 287.293 14.0082 284.422C15.9981 281.551 15.282 277.61 12.4087 275.618C9.53534 273.626 5.59293 274.339 3.60304 277.21C1.61316 280.081 2.32932 284.023 5.20263 286.014Z" fill="#F89203"/>
<path d="M151.21 51.3434C153.536 52.9551 156.726 52.3782 158.336 50.055C159.947 47.7318 159.367 44.5419 157.042 42.9302C154.717 41.3185 151.526 41.8953 149.916 44.2186C148.305 46.5418 148.885 49.7317 151.21 51.3434Z" fill="#A1D211"/>
<path d="M566.21 533.343C568.536 534.955 571.726 534.378 573.336 532.055C574.947 529.732 574.367 526.542 572.042 524.93C569.717 523.318 566.526 523.895 564.916 526.219C563.305 528.542 563.885 531.732 566.21 533.343Z" fill="#A1D211"/>
</svg>
