<svg width="468" height="420" viewBox="0 0 468 420" fill="none" xmlns="http://www.w3.org/2000/svg">
<path d="M342.729 204.145V235.912M342.727 204.156L315.216 220.041M315.216 220.041L315.216 251.809M315.216 220.041L287.704 204.156M287.702 235.912V204.145M287.704 204.145V235.912L315.216 251.797L342.727 235.912V204.145L315.216 188.26L287.704 204.145Z" stroke="#5DC9F1" stroke-width="2" stroke-linejoin="round"/>
<path d="M317.16 220.052C317.16 221.127 316.289 221.998 315.215 221.998C314.14 221.998 313.269 221.127 313.269 220.052C313.269 218.978 314.14 218.107 315.215 218.107C316.289 218.107 317.16 218.978 317.16 220.052Z" fill="white" stroke="#5DC9F1"/>
<path d="M317.16 188.26C317.16 189.335 316.289 190.206 315.215 190.206C314.14 190.206 313.269 189.335 313.269 188.26C313.269 187.186 314.14 186.315 315.215 186.315C316.289 186.315 317.16 187.186 317.16 188.26Z" fill="white" stroke="#5DC9F1"/>
<path d="M344.673 204.156C344.673 205.231 343.802 206.102 342.727 206.102C341.653 206.102 340.782 205.231 340.782 204.156C340.782 203.082 341.653 202.211 342.727 202.211C343.802 202.211 344.673 203.082 344.673 204.156Z" fill="white" stroke="#5DC9F1"/>
<path d="M344.673 235.949C344.673 237.023 343.802 237.894 342.727 237.894C341.653 237.894 340.782 237.023 340.782 235.949C340.782 234.874 341.653 234.003 342.727 234.003C343.802 234.003 344.673 234.874 344.673 235.949Z" fill="white" stroke="#5DC9F1"/>
<path d="M317.16 251.845C317.16 252.919 316.289 253.79 315.215 253.79C314.14 253.79 313.269 252.919 313.269 251.845C313.269 250.77 314.14 249.899 315.215 249.899C316.289 249.899 317.16 250.77 317.16 251.845Z" fill="white" stroke="#5DC9F1"/>
<circle cx="287.702" cy="235.949" r="1.94555" fill="white" stroke="#5DC9F1"/>
<path d="M289.648 204.156C289.648 205.231 288.777 206.102 287.702 206.102C286.628 206.102 285.757 205.231 285.757 204.156C285.757 203.082 286.628 202.211 287.702 202.211C288.777 202.211 289.648 203.082 289.648 204.156Z" fill="white" stroke="#5DC9F1"/>
<path d="M275.476 242.662V274.429M275.474 242.674L247.963 258.558M247.963 258.558L247.963 290.326M247.963 258.558L220.451 242.674M220.449 274.429V242.662M220.451 242.662V274.429L247.963 290.314L275.474 274.429V242.662L247.963 226.778L220.451 242.662Z" stroke="#5DC9F1" stroke-width="2" stroke-linejoin="round"/>
<path d="M249.907 258.57C249.907 259.644 249.036 260.515 247.962 260.515C246.887 260.515 246.016 259.644 246.016 258.57C246.016 257.495 246.887 256.624 247.962 256.624C249.036 256.624 249.907 257.495 249.907 258.57Z" fill="white" stroke="#5DC9F1"/>
<path d="M249.907 226.778C249.907 227.852 249.036 228.723 247.962 228.723C246.887 228.723 246.016 227.852 246.016 226.778C246.016 225.703 246.887 224.832 247.962 224.832C249.036 224.832 249.907 225.703 249.907 226.778Z" fill="white" stroke="#5DC9F1"/>
<circle cx="275.474" cy="242.674" r="1.94556" fill="white" stroke="#5DC9F1"/>
<circle cx="275.474" cy="274.466" r="1.94556" fill="white" stroke="#5DC9F1"/>
<path d="M249.907 290.362C249.907 291.437 249.036 292.308 247.962 292.308C246.887 292.308 246.016 291.437 246.016 290.362C246.016 289.288 246.887 288.417 247.962 288.417C249.036 288.417 249.907 289.288 249.907 290.362Z" fill="white" stroke="#5DC9F1"/>
<path d="M222.395 274.466C222.395 275.541 221.524 276.412 220.449 276.412C219.375 276.412 218.504 275.541 218.504 274.466C218.504 273.392 219.375 272.52 220.449 272.52C221.524 272.52 222.395 273.392 222.395 274.466Z" fill="white" stroke="#5DC9F1"/>
<path d="M222.395 242.674C222.395 243.748 221.524 244.619 220.449 244.619C219.375 244.619 218.504 243.748 218.504 242.674C218.504 241.599 219.375 240.728 220.449 240.728C221.524 240.728 222.395 241.599 222.395 242.674Z" fill="white" stroke="#5DC9F1"/>
<path d="M409.981 254.89V286.657M409.98 254.902L382.469 270.786M382.469 270.786L382.468 302.554M382.469 270.786L354.956 254.902M354.955 286.657V254.89M354.956 254.89V286.657L382.468 302.542L409.98 286.657V254.89L382.469 239.005L354.956 254.89Z" stroke="#5DC9F1" stroke-width="2" stroke-linejoin="round"/>
<circle cx="382.467" cy="270.798" r="1.94556" fill="white" stroke="#5DC9F1"/>
<path d="M384.413 239.005C384.413 240.08 383.542 240.951 382.467 240.951C381.393 240.951 380.522 240.08 380.522 239.005C380.522 237.931 381.393 237.06 382.467 237.06C383.542 237.06 384.413 237.931 384.413 239.005Z" fill="white" stroke="#5DC9F1"/>
<path d="M411.926 254.902C411.926 255.976 411.055 256.847 409.98 256.847C408.906 256.847 408.034 255.976 408.034 254.902C408.034 253.827 408.906 252.956 409.98 252.956C411.055 252.956 411.926 253.827 411.926 254.902Z" fill="white" stroke="#5DC9F1"/>
<circle cx="409.98" cy="286.694" r="1.94555" fill="white" stroke="#5DC9F1"/>
<circle cx="382.467" cy="302.59" r="1.94556" fill="white" stroke="#5DC9F1"/>
<path d="M356.901 286.694C356.901 287.768 356.029 288.639 354.955 288.639C353.88 288.639 353.009 287.768 353.009 286.694C353.009 285.619 353.88 284.748 354.955 284.748C356.029 284.748 356.901 285.619 356.901 286.694Z" fill="white" stroke="#5DC9F1"/>
<path d="M356.901 254.902C356.901 255.976 356.029 256.847 354.955 256.847C353.88 256.847 353.009 255.976 353.009 254.902C353.009 253.827 353.88 252.956 354.955 252.956C356.029 252.956 356.901 253.827 356.901 254.902Z" fill="white" stroke="#5DC9F1"/>
<path d="M342.729 294.019V325.786M342.727 294.031L315.216 309.915M315.216 309.915L315.216 341.683M315.216 309.915L287.704 294.031M287.702 325.786V294.019M287.704 294.019V325.786L315.216 341.671L342.727 325.786V294.019L315.216 278.134L287.704 294.019Z" stroke="#5DC9F1" stroke-width="2" stroke-linejoin="round"/>
<path d="M317.16 309.927C317.16 311.001 316.289 311.872 315.215 311.872C314.14 311.872 313.269 311.001 313.269 309.927C313.269 308.852 314.14 307.981 315.215 307.981C316.289 307.981 317.16 308.852 317.16 309.927Z" fill="white" stroke="#5DC9F1"/>
<path d="M317.16 278.134C317.16 279.209 316.289 280.08 315.215 280.08C314.14 280.08 313.269 279.209 313.269 278.134C313.269 277.06 314.14 276.189 315.215 276.189C316.289 276.189 317.16 277.06 317.16 278.134Z" fill="white" stroke="#5DC9F1"/>
<path d="M344.673 294.031C344.673 295.105 343.802 295.976 342.727 295.976C341.653 295.976 340.782 295.105 340.782 294.031C340.782 292.956 341.653 292.085 342.727 292.085C343.802 292.085 344.673 292.956 344.673 294.031Z" fill="white" stroke="#5DC9F1"/>
<path d="M344.673 325.823C344.673 326.897 343.802 327.768 342.727 327.768C341.653 327.768 340.782 326.897 340.782 325.823C340.782 324.748 341.653 323.877 342.727 323.877C343.802 323.877 344.673 324.748 344.673 325.823Z" fill="white" stroke="#5DC9F1"/>
<circle cx="315.215" cy="341.719" r="1.94555" fill="white" stroke="#5DC9F1"/>
<path d="M289.648 325.823C289.648 326.897 288.777 327.768 287.702 327.768C286.628 327.768 285.757 326.897 285.757 325.823C285.757 324.748 286.628 323.877 287.702 323.877C288.777 323.877 289.648 324.748 289.648 325.823Z" fill="white" stroke="#5DC9F1"/>
<path d="M289.648 294.031C289.648 295.105 288.777 295.976 287.702 295.976C286.628 295.976 285.757 295.105 285.757 294.031C285.757 292.956 286.628 292.085 287.702 292.085C288.777 292.085 289.648 292.956 289.648 294.031Z" fill="white" stroke="#5DC9F1"/>
<g filter="url(#filter0_b_2429_2469)">
<circle cx="315.826" cy="264.684" r="138.174" fill="url(#paint0_radial_2429_2469)" fill-opacity="0.53"/>
<circle cx="315.826" cy="264.684" r="137.674" stroke="#D0DEEA" stroke-opacity="0.33"/>
</g>
<g filter="url(#filter1_b_2429_2469)">
<circle cx="316.275" cy="265.132" r="148.684" stroke="#F99201" stroke-opacity="0.45" stroke-width="5"/>
</g>
<path d="M315.006 238L300.07 229.135V211.382L315.007 202.517L329.942 211.382V229.135L315.006 238Z" fill="url(#paint1_linear_2429_2469)" fill-opacity="0.3" stroke="#A1D10E"/>
<path d="M332.945 209.97L315.215 220.056M315.215 220.056L315.215 240.228M315.215 220.056L297.484 209.97M297.484 209.963V230.134L315.215 240.22L332.945 230.134V209.963L315.215 199.877L297.484 209.963Z" stroke="#A1D10E"/>
<path d="M247.753 277.129L232.818 268.264V250.511L247.754 241.646L262.689 250.51V268.264L247.753 277.129Z" fill="url(#paint2_linear_2429_2469)" fill-opacity="0.3" stroke="#A1D10E"/>
<path d="M265.692 249.099L247.962 259.185M247.962 259.185L247.962 279.357M247.962 259.185L230.232 249.099M230.232 249.092V269.263L247.962 279.349L265.692 269.263V249.092L247.962 239.005L230.232 249.092Z" stroke="#A1D10E"/>
<path d="M315.006 328.485L300.07 319.62V301.867L315.007 293.002L329.942 301.867V319.62L315.006 328.485Z" fill="url(#paint3_linear_2429_2469)" fill-opacity="0.3" stroke="#A1D10E"/>
<path d="M332.945 300.456L315.215 310.542M315.215 310.542L315.215 330.714M315.215 310.542L297.484 300.456M297.484 300.448V320.62L315.215 330.706L332.945 320.62V300.448L315.215 290.362L297.484 300.448Z" stroke="#A1D10E"/>
<path d="M382.259 289.356L367.323 280.491V262.738L382.259 253.873L397.195 262.738V280.491L382.259 289.356Z" fill="url(#paint4_linear_2429_2469)" fill-opacity="0.3" stroke="#A1D10E"/>
<path d="M400.198 261.327L382.468 271.413M382.468 271.413L382.468 291.585M382.468 271.413L364.737 261.327M364.737 261.319V281.491L382.468 291.577L400.198 281.491V261.319L382.468 251.233L364.737 261.319Z" stroke="#A1D10E"/>
<path d="M124.928 58.753V82.7941M124.927 58.7619L104.107 70.783M104.107 70.783L104.107 94.8249M104.107 70.783L83.2857 58.7619M83.2847 82.7941V58.753M83.2857 58.753V82.7941L104.107 94.8156L124.927 82.7941V58.753L104.107 46.7319L83.2857 58.753Z" stroke="#5DC9F1" stroke-width="2" stroke-linejoin="round"/>
<path d="M105.457 70.7919C105.457 71.5379 104.852 72.1427 104.106 72.1427C103.36 72.1427 102.755 71.5379 102.755 70.7919C102.755 70.0459 103.36 69.4412 104.106 69.4412C104.852 69.4412 105.457 70.0459 105.457 70.7919Z" fill="white" stroke="#5DC9F1"/>
<path d="M105.457 46.7319C105.457 47.4779 104.852 48.0827 104.106 48.0827C103.36 48.0827 102.755 47.4779 102.755 46.7319C102.755 45.9859 103.36 45.3812 104.106 45.3812C104.852 45.3812 105.457 45.9859 105.457 46.7319Z" fill="white" stroke="#5DC9F1"/>
<path d="M126.278 58.762C126.278 59.508 125.673 60.1127 124.927 60.1127C124.181 60.1127 123.576 59.508 123.576 58.762C123.576 58.016 124.181 57.4112 124.927 57.4112C125.673 57.4112 126.278 58.016 126.278 58.762Z" fill="white" stroke="#5DC9F1"/>
<path d="M126.278 82.822C126.278 83.568 125.673 84.1727 124.927 84.1727C124.181 84.1727 123.576 83.568 123.576 82.822C123.576 82.076 124.181 81.4712 124.927 81.4712C125.673 81.4712 126.278 82.076 126.278 82.822Z" fill="white" stroke="#5DC9F1"/>
<path d="M105.457 94.8519C105.457 95.5979 104.852 96.2027 104.106 96.2027C103.36 96.2027 102.755 95.5979 102.755 94.8519C102.755 94.1059 103.36 93.5012 104.106 93.5012C104.852 93.5012 105.457 94.1059 105.457 94.8519Z" fill="white" stroke="#5DC9F1"/>
<path d="M84.6354 82.822C84.6354 83.568 84.0307 84.1727 83.2847 84.1727C82.5387 84.1727 81.9339 83.568 81.9339 82.822C81.9339 82.076 82.5387 81.4712 83.2847 81.4712C84.0307 81.4712 84.6354 82.076 84.6354 82.822Z" fill="white" stroke="#5DC9F1"/>
<path d="M84.6354 58.762C84.6354 59.508 84.0307 60.1127 83.2847 60.1127C82.5387 60.1127 81.9339 59.508 81.9339 58.762C81.9339 58.016 82.5387 57.4112 83.2847 57.4112C84.0307 57.4112 84.6354 58.016 84.6354 58.762Z" fill="white" stroke="#5DC9F1"/>
<path d="M74.0319 87.9027V111.944M74.0308 87.9116L53.2107 99.9327M53.2107 99.9327L53.2104 123.975M53.2107 99.9327L32.3896 87.9116M32.3885 111.944V87.9027M32.3896 87.9027V111.944L53.2104 123.965L74.0308 111.944V87.9027L53.2107 75.8816L32.3896 87.9027Z" stroke="#5DC9F1" stroke-width="2" stroke-linejoin="round"/>
<path d="M54.5604 99.9416C54.5604 100.688 53.9557 101.292 53.2097 101.292C52.4636 101.292 51.8589 100.688 51.8589 99.9416C51.8589 99.1956 52.4636 98.5908 53.2097 98.5908C53.9557 98.5908 54.5604 99.1956 54.5604 99.9416Z" fill="white" stroke="#5DC9F1"/>
<path d="M54.5604 75.8816C54.5604 76.6276 53.9557 77.2324 53.2097 77.2324C52.4636 77.2324 51.8589 76.6276 51.8589 75.8816C51.8589 75.1356 52.4636 74.5308 53.2097 74.5308C53.9557 74.5308 54.5604 75.1356 54.5604 75.8816Z" fill="white" stroke="#5DC9F1"/>
<path d="M75.3816 87.9116C75.3816 88.6576 74.7768 89.2624 74.0308 89.2624C73.2848 89.2624 72.6801 88.6576 72.6801 87.9116C72.6801 87.1656 73.2848 86.5609 74.0308 86.5609C74.7768 86.5609 75.3816 87.1656 75.3816 87.9116Z" fill="white" stroke="#5DC9F1"/>
<circle cx="74.0308" cy="111.972" r="1.35077" fill="white" stroke="#5DC9F1"/>
<path d="M54.5604 124.002C54.5604 124.748 53.9557 125.352 53.2097 125.352C52.4636 125.352 51.8589 124.748 51.8589 124.002C51.8589 123.256 52.4636 122.651 53.2097 122.651C53.9557 122.651 54.5604 123.256 54.5604 124.002Z" fill="white" stroke="#5DC9F1"/>
<path d="M33.7393 111.972C33.7393 112.718 33.1345 113.322 32.3885 113.322C31.6425 113.322 31.0377 112.718 31.0377 111.972C31.0377 111.226 31.6425 110.621 32.3885 110.621C33.1345 110.621 33.7393 111.226 33.7393 111.972Z" fill="white" stroke="#5DC9F1"/>
<path d="M33.7393 87.9116C33.7393 88.6576 33.1345 89.2624 32.3885 89.2624C31.6425 89.2624 31.0377 88.6576 31.0377 87.9116C31.0377 87.1656 31.6425 86.5609 32.3885 86.5609C33.1345 86.5609 33.7393 87.1656 33.7393 87.9116Z" fill="white" stroke="#5DC9F1"/>
<path d="M175.824 97.1565V121.198M175.823 97.1654L155.003 109.186M155.003 109.186L155.003 133.228M155.003 109.186L134.182 97.1654M134.181 121.198V97.1565M134.182 97.1565V121.198L155.003 133.219L175.823 121.198V97.1565L155.003 85.1354L134.182 97.1565Z" stroke="#5DC9F1" stroke-width="2" stroke-linejoin="round"/>
<path d="M156.353 109.195C156.353 109.941 155.748 110.546 155.002 110.546C154.256 110.546 153.651 109.941 153.651 109.195C153.651 108.449 154.256 107.845 155.002 107.845C155.748 107.845 156.353 108.449 156.353 109.195Z" fill="white" stroke="#5DC9F1"/>
<path d="M156.353 85.1354C156.353 85.8814 155.748 86.4861 155.002 86.4861C154.256 86.4861 153.651 85.8814 153.651 85.1354C153.651 84.3894 154.256 83.7846 155.002 83.7846C155.748 83.7846 156.353 84.3894 156.353 85.1354Z" fill="white" stroke="#5DC9F1"/>
<path d="M177.174 97.1654C177.174 97.9114 176.569 98.5162 175.823 98.5162C175.077 98.5162 174.472 97.9114 174.472 97.1654C174.472 96.4194 175.077 95.8146 175.823 95.8146C176.569 95.8146 177.174 96.4194 177.174 97.1654Z" fill="white" stroke="#5DC9F1"/>
<path d="M177.174 121.225C177.174 121.971 176.569 122.576 175.823 122.576C175.077 122.576 174.472 121.971 174.472 121.225C174.472 120.479 175.077 119.875 175.823 119.875C176.569 119.875 177.174 120.479 177.174 121.225Z" fill="white" stroke="#5DC9F1"/>
<path d="M156.353 133.255C156.353 134.001 155.748 134.606 155.002 134.606C154.256 134.606 153.651 134.001 153.651 133.255C153.651 132.509 154.256 131.905 155.002 131.905C155.748 131.905 156.353 132.509 156.353 133.255Z" fill="white" stroke="#5DC9F1"/>
<path d="M135.532 121.225C135.532 121.971 134.927 122.576 134.181 122.576C133.435 122.576 132.83 121.971 132.83 121.225C132.83 120.479 133.435 119.875 134.181 119.875C134.927 119.875 135.532 120.479 135.532 121.225Z" fill="white" stroke="#5DC9F1"/>
<path d="M135.532 97.1654C135.532 97.9114 134.927 98.5162 134.181 98.5162C133.435 98.5162 132.83 97.9114 132.83 97.1654C132.83 96.4194 133.435 95.8146 134.181 95.8146C134.927 95.8146 135.532 96.4194 135.532 97.1654Z" fill="white" stroke="#5DC9F1"/>
<path d="M124.928 126.769V150.81M124.927 126.778L104.107 138.799M104.107 138.799L104.107 162.841M104.107 138.799L83.2857 126.778M83.2847 150.81V126.769M83.2857 126.769V150.81L104.107 162.831L124.927 150.81V126.769L104.107 114.748L83.2857 126.769Z" stroke="#5DC9F1" stroke-width="2" stroke-linejoin="round"/>
<path d="M105.457 138.808C105.457 139.554 104.852 140.159 104.106 140.159C103.36 140.159 102.755 139.554 102.755 138.808C102.755 138.062 103.36 137.457 104.106 137.457C104.852 137.457 105.457 138.062 105.457 138.808Z" fill="white" stroke="#5DC9F1"/>
<path d="M105.457 114.748C105.457 115.494 104.852 116.099 104.106 116.099C103.36 116.099 102.755 115.494 102.755 114.748C102.755 114.002 103.36 113.397 104.106 113.397C104.852 113.397 105.457 114.002 105.457 114.748Z" fill="white" stroke="#5DC9F1"/>
<path d="M126.278 126.778C126.278 127.524 125.673 128.129 124.927 128.129C124.181 128.129 123.576 127.524 123.576 126.778C123.576 126.032 124.181 125.427 124.927 125.427C125.673 125.427 126.278 126.032 126.278 126.778Z" fill="white" stroke="#5DC9F1"/>
<path d="M126.278 150.838C126.278 151.584 125.673 152.189 124.927 152.189C124.181 152.189 123.576 151.584 123.576 150.838C123.576 150.092 124.181 149.487 124.927 149.487C125.673 149.487 126.278 150.092 126.278 150.838Z" fill="white" stroke="#5DC9F1"/>
<path d="M105.457 162.868C105.457 163.614 104.852 164.219 104.106 164.219C103.36 164.219 102.755 163.614 102.755 162.868C102.755 162.122 103.36 161.517 104.106 161.517C104.852 161.517 105.457 162.122 105.457 162.868Z" fill="white" stroke="#5DC9F1"/>
<path d="M84.6354 150.838C84.6354 151.584 84.0307 152.189 83.2847 152.189C82.5387 152.189 81.9339 151.584 81.9339 150.838C81.9339 150.092 82.5387 149.487 83.2847 149.487C84.0307 149.487 84.6354 150.092 84.6354 150.838Z" fill="white" stroke="#5DC9F1"/>
<path d="M84.6354 126.778C84.6354 127.524 84.0307 128.129 83.2847 128.129C82.5387 128.129 81.9339 127.524 81.9339 126.778C81.9339 126.032 82.5387 125.427 83.2847 125.427C84.0307 125.427 84.6354 126.032 84.6354 126.778Z" fill="white" stroke="#5DC9F1"/>
<g filter="url(#filter2_b_2429_2469)">
<circle cx="104.569" cy="104.569" r="104.569" fill="url(#paint5_radial_2429_2469)" fill-opacity="0.53"/>
<circle cx="104.569" cy="104.569" r="104.069" stroke="#D0DEEA" stroke-opacity="0.33"/>
</g>
<path d="M103.948 84.233L92.7664 77.5961V64.2993L103.948 57.6626L115.13 64.2993V77.5961L103.948 84.233Z" fill="url(#paint6_linear_2429_2469)" fill-opacity="0.3" stroke="#A1D10E"/>
<path d="M117.524 63.1619L104.106 70.7949M104.106 70.7949L104.106 86.0608M104.106 70.7949L90.6877 63.1619M90.6877 63.1562V78.4216L104.106 86.055L117.524 78.4216V63.1562L104.106 55.5231L90.6877 63.1562Z" stroke="#A1D10E"/>
<path d="M53.0519 113.845L41.8702 107.208V93.9116L53.0521 87.2749L64.2334 93.9116V107.208L53.0519 113.845Z" fill="url(#paint7_linear_2429_2469)" fill-opacity="0.3" stroke="#A1D10E"/>
<path d="M66.6277 92.7742L53.21 100.407M53.21 100.407L53.2098 115.673M53.21 100.407L39.7916 92.7742M39.7916 92.7685V108.034L53.2098 115.667L66.6277 108.034V92.7685L53.21 85.1354L39.7916 92.7685Z" stroke="#A1D10E"/>
<path d="M103.948 152.711L92.7664 146.075V132.778L103.948 126.141L115.13 132.778V146.075L103.948 152.711Z" fill="url(#paint8_linear_2429_2469)" fill-opacity="0.3" stroke="#A1D10E"/>
<path d="M117.524 131.64L104.106 139.273M104.106 139.273L104.106 154.539M104.106 139.273L90.6877 131.64M90.6877 131.635V146.9L104.106 154.533L117.524 146.9V131.635L104.106 124.002L90.6877 131.635Z" stroke="#A1D10E"/>
<path d="M154.844 123.099L143.663 116.462V103.165L154.844 96.5288L166.026 103.165V116.462L154.844 123.099Z" fill="url(#paint9_linear_2429_2469)" fill-opacity="0.3" stroke="#A1D10E"/>
<path d="M168.42 102.028L155.002 109.661M155.002 109.661L155.002 124.927M155.002 109.661L141.584 102.028M141.584 102.022V117.288L155.002 124.921L168.42 117.288V102.022L155.002 94.3893L141.584 102.022Z" stroke="#A1D10E"/>
<g filter="url(#filter3_b_2429_2469)">
<circle cx="268.721" cy="56.0771" r="46.2075" fill="url(#paint10_radial_2429_2469)" fill-opacity="0.53"/>
<circle cx="268.721" cy="56.0771" r="45.7075" stroke="#D0DEEA" stroke-opacity="0.33"/>
</g>
<path d="M269.199 46.2545L263.187 42.6857V35.5246L269.2 31.9559L275.212 35.5246V42.6857L269.199 46.2545Z" fill="url(#paint11_linear_2429_2469)" fill-opacity="0.3" stroke="#5DC9F1"/>
<path d="M276.768 34.7645L269.288 39.02M269.288 39.02L269.287 47.5309M269.288 39.02L261.807 34.7645M261.807 34.7614V43.272L269.287 47.5276L276.768 43.272V34.7614L269.288 30.5059L261.807 34.7614Z" stroke="#5DC9F1"/>
<path d="M248.748 63.8955L242.736 60.3268V53.1657L248.749 49.597L254.761 53.1656V60.3268L248.748 63.8955Z" fill="url(#paint12_linear_2429_2469)" fill-opacity="0.3" stroke="#5DC9F1"/>
<path d="M256.317 52.4056L248.837 56.6611M248.837 56.6611L248.836 65.1719M248.837 56.6611L241.356 52.4056M241.356 52.4025V60.913L248.836 65.1686L256.317 60.913V52.4025L248.837 48.147L241.356 52.4025Z" stroke="#5DC9F1"/>
<path d="M269.199 79.9036L263.187 76.3348V69.1737L269.2 65.6051L275.212 69.1737V76.3348L269.199 79.9036Z" fill="url(#paint13_linear_2429_2469)" fill-opacity="0.3" stroke="#5DC9F1"/>
<path d="M276.768 68.4137L269.288 72.6691M269.288 72.6691L269.287 81.18M269.288 72.6691L261.807 68.4137M261.807 68.4105V76.9211L269.287 81.1767L276.768 76.9211V68.4105L269.288 64.155L261.807 68.4105Z" stroke="#5DC9F1"/>
<path d="M288.518 64.5266L282.506 60.9579V53.7968L288.518 50.2281L294.531 53.7967V60.9579L288.518 64.5266Z" fill="url(#paint14_linear_2429_2469)" fill-opacity="0.3" stroke="#5DC9F1"/>
<path d="M296.087 53.0367L288.607 57.2922M288.607 57.2922L288.606 65.803M288.607 57.2922L281.126 53.0367M281.126 53.0336V61.5441L288.606 65.7997L296.087 61.5441V53.0336L288.607 48.7781L281.126 53.0336Z" stroke="#5DC9F1"/>
<defs>
<filter id="filter0_b_2429_2469" x="137.652" y="86.5099" width="356.348" height="356.348" filterUnits="userSpaceOnUse" color-interpolation-filters="sRGB">
<feFlood flood-opacity="0" result="BackgroundImageFix"/>
<feGaussianBlur in="BackgroundImageFix" stdDeviation="20"/>
<feComposite in2="SourceAlpha" operator="in" result="effect1_backgroundBlur_2429_2469"/>
<feBlend mode="normal" in="SourceGraphic" in2="effect1_backgroundBlur_2429_2469" result="shape"/>
</filter>
<filter id="filter1_b_2429_2469" x="125.091" y="73.9486" width="382.368" height="382.368" filterUnits="userSpaceOnUse" color-interpolation-filters="sRGB">
<feFlood flood-opacity="0" result="BackgroundImageFix"/>
<feGaussianBlur in="BackgroundImageFix" stdDeviation="20"/>
<feComposite in2="SourceAlpha" operator="in" result="effect1_backgroundBlur_2429_2469"/>
<feBlend mode="normal" in="SourceGraphic" in2="effect1_backgroundBlur_2429_2469" result="shape"/>
</filter>
<filter id="filter2_b_2429_2469" x="-40" y="-40" width="289.137" height="289.137" filterUnits="userSpaceOnUse" color-interpolation-filters="sRGB">
<feFlood flood-opacity="0" result="BackgroundImageFix"/>
<feGaussianBlur in="BackgroundImageFix" stdDeviation="20"/>
<feComposite in2="SourceAlpha" operator="in" result="effect1_backgroundBlur_2429_2469"/>
<feBlend mode="normal" in="SourceGraphic" in2="effect1_backgroundBlur_2429_2469" result="shape"/>
</filter>
<filter id="filter3_b_2429_2469" x="182.514" y="-30.1304" width="172.415" height="172.415" filterUnits="userSpaceOnUse" color-interpolation-filters="sRGB">
<feFlood flood-opacity="0" result="BackgroundImageFix"/>
<feGaussianBlur in="BackgroundImageFix" stdDeviation="20"/>
<feComposite in2="SourceAlpha" operator="in" result="effect1_backgroundBlur_2429_2469"/>
<feBlend mode="normal" in="SourceGraphic" in2="effect1_backgroundBlur_2429_2469" result="shape"/>
</filter>
<radialGradient id="paint0_radial_2429_2469" cx="0" cy="0" r="1" gradientUnits="userSpaceOnUse" gradientTransform="translate(320.717 256.736) rotate(-122.471) scale(135.516)">
<stop offset="0.854167" stop-color="#D0DEEA" stop-opacity="0"/>
<stop offset="1" stop-color="#D0DEEA"/>
</radialGradient>
<linearGradient id="paint1_linear_2429_2469" x1="315.006" y1="225.817" x2="315.006" y2="175.995" gradientUnits="userSpaceOnUse">
<stop stop-color="#A1D10E"/>
<stop offset="1" stop-color="white" stop-opacity="0"/>
</linearGradient>
<linearGradient id="paint2_linear_2429_2469" x1="247.753" y1="264.946" x2="247.753" y2="215.124" gradientUnits="userSpaceOnUse">
<stop stop-color="#A1D10E"/>
<stop offset="1" stop-color="white" stop-opacity="0"/>
</linearGradient>
<linearGradient id="paint3_linear_2429_2469" x1="315.006" y1="316.303" x2="315.006" y2="266.481" gradientUnits="userSpaceOnUse">
<stop stop-color="#A1D10E"/>
<stop offset="1" stop-color="white" stop-opacity="0"/>
</linearGradient>
<linearGradient id="paint4_linear_2429_2469" x1="382.259" y1="277.174" x2="382.259" y2="227.352" gradientUnits="userSpaceOnUse">
<stop stop-color="#A1D10E"/>
<stop offset="1" stop-color="white" stop-opacity="0"/>
</linearGradient>
<radialGradient id="paint5_radial_2429_2469" cx="0" cy="0" r="1" gradientUnits="userSpaceOnUse" gradientTransform="translate(108.27 98.5535) rotate(-122.471) scale(102.557)">
<stop offset="0.854167" stop-color="#D0DEEA" stop-opacity="0"/>
<stop offset="1" stop-color="#D0DEEA"/>
</radialGradient>
<linearGradient id="paint6_linear_2429_2469" x1="103.948" y1="75.1545" x2="103.948" y2="37.4498" gradientUnits="userSpaceOnUse">
<stop stop-color="#A1D10E"/>
<stop offset="1" stop-color="white" stop-opacity="0"/>
</linearGradient>
<linearGradient id="paint7_linear_2429_2469" x1="53.0518" y1="104.767" x2="53.0518" y2="67.0621" gradientUnits="userSpaceOnUse">
<stop stop-color="#A1D10E"/>
<stop offset="1" stop-color="white" stop-opacity="0"/>
</linearGradient>
<linearGradient id="paint8_linear_2429_2469" x1="103.948" y1="143.633" x2="103.948" y2="105.928" gradientUnits="userSpaceOnUse">
<stop stop-color="#A1D10E"/>
<stop offset="1" stop-color="white" stop-opacity="0"/>
</linearGradient>
<linearGradient id="paint9_linear_2429_2469" x1="154.844" y1="114.021" x2="154.844" y2="76.3159" gradientUnits="userSpaceOnUse">
<stop stop-color="#A1D10E"/>
<stop offset="1" stop-color="white" stop-opacity="0"/>
</linearGradient>
<radialGradient id="paint10_radial_2429_2469" cx="0" cy="0" r="1" gradientUnits="userSpaceOnUse" gradientTransform="translate(270.357 53.4191) rotate(-122.471) scale(45.3187)">
<stop offset="0.854167" stop-color="#D0DEEA" stop-opacity="0"/>
<stop offset="1" stop-color="#D0DEEA"/>
</radialGradient>
<linearGradient id="paint11_linear_2429_2469" x1="269.199" y1="41.4505" x2="269.199" y2="20.4299" gradientUnits="userSpaceOnUse">
<stop stop-color="#A1D10E"/>
<stop offset="1" stop-color="white" stop-opacity="0"/>
</linearGradient>
<linearGradient id="paint12_linear_2429_2469" x1="248.748" y1="59.0915" x2="248.748" y2="38.071" gradientUnits="userSpaceOnUse">
<stop stop-color="#A1D10E"/>
<stop offset="1" stop-color="white" stop-opacity="0"/>
</linearGradient>
<linearGradient id="paint13_linear_2429_2469" x1="269.199" y1="75.0996" x2="269.199" y2="54.079" gradientUnits="userSpaceOnUse">
<stop stop-color="#A1D10E"/>
<stop offset="1" stop-color="white" stop-opacity="0"/>
</linearGradient>
<linearGradient id="paint14_linear_2429_2469" x1="288.518" y1="59.7226" x2="288.518" y2="38.7021" gradientUnits="userSpaceOnUse">
<stop stop-color="#A1D10E"/>
<stop offset="1" stop-color="white" stop-opacity="0"/>
</linearGradient>
</defs>
</svg>
