<svg width="415" height="378" viewBox="0 0 415 378" fill="none" xmlns="http://www.w3.org/2000/svg">
<mask id="mask0_1002_36" style="mask-type:alpha" maskUnits="userSpaceOnUse" x="0" y="0" width="415" height="378">
<rect width="415" height="378" fill="#C4C4C4"/>
</mask>
<g mask="url(#mask0_1002_36)">
<path d="M415.385 303.776L209.502 185.075M209.502 185.075L3.61495 303.781M209.502 185.075L209.502 17.4491" stroke="#D0DEEA" stroke-width="2" stroke-linejoin="round" stroke-dasharray="4 4"/>
<path d="M99.0057 122.239V248.71L209.001 311.951L318.994 248.71V122.239L209.003 59L99.0057 122.239Z" fill="white"/>
<path d="M319 122.239V248.71M318.994 122.286C318.994 122.286 298.046 134.33 272.067 149.266M209.001 312C209.001 312 209.001 286.684 209.002 255.772M99.0057 122.286C99.0057 122.286 119.955 134.33 145.936 149.266M99 248.71V122.239M99.0057 122.239V248.71L209.001 311.951L318.994 248.71V122.239L209.003 59L99.0057 122.239Z" stroke="#D0DEEA" stroke-width="2" stroke-linejoin="round"/>
<path d="M147 221.998V150.001L209.502 114L272 150.001V221.998L209.501 258L147 221.998Z" stroke="#D0DEEA" stroke-width="2" stroke-linejoin="round"/>
<path d="M269.068 219.988L209.041 185.379M209.041 185.379L149.013 219.989M209.041 185.379L209.041 115.787" stroke="#D0DEEA" stroke-opacity="0.5" stroke-width="2" stroke-linejoin="round" stroke-dasharray="4 4"/>
<path d="M206.362 14.1024C209.539 16.3047 213.9 15.5143 216.102 12.3369C218.305 9.15956 217.514 4.79846 214.337 2.59613C211.16 0.393799 206.799 1.18422 204.596 4.36159C202.394 7.53895 203.184 11.9001 206.362 14.1024Z" fill="#5DC8F0" stroke="white" stroke-width="2"/>
<path d="M43.3616 103.102C46.539 105.305 50.9001 104.514 53.1024 101.337C55.3047 98.1596 54.5143 93.7985 51.3369 91.5961C48.1596 89.3938 43.7985 90.1842 41.5961 93.3616C39.3938 96.5389 40.1842 100.9 43.3616 103.102Z" fill="#F99201" stroke="white" stroke-width="2"/>
<path d="M365.362 104.102C368.539 106.305 372.9 105.514 375.102 102.337C377.305 99.1596 376.514 94.7985 373.337 92.5961C370.159 90.3938 365.798 91.1842 363.596 94.3616C361.394 97.5389 362.184 101.9 365.362 104.102Z" fill="#A1D10E" stroke="white" stroke-width="2"/>
<path d="M206.362 365.102C209.539 367.305 213.9 366.514 216.102 363.337C218.305 360.16 217.514 355.798 214.337 353.596C211.16 351.394 206.799 352.184 204.596 355.362C202.394 358.539 203.184 362.9 206.362 365.102Z" fill="#5DC8F0" stroke="white" stroke-width="2"/>
<path d="M50.3616 279.102C53.539 281.305 57.9001 280.514 60.1024 277.337C62.3047 274.16 61.5143 269.798 58.3369 267.596C55.1596 265.394 50.7985 266.184 48.5961 269.362C46.3938 272.539 47.1842 276.9 50.3616 279.102Z" fill="#A1D10E" stroke="white" stroke-width="2"/>
<path d="M364.362 280.102C367.539 282.305 371.9 281.514 374.102 278.337C376.305 275.16 375.514 270.798 372.337 268.596C369.16 266.394 364.799 267.184 362.596 270.362C360.394 273.539 361.184 277.9 364.362 280.102Z" fill="#F99201" stroke="white" stroke-width="2"/>
<path d="M171.002 163.996V207.986L209.5 229.983L247.998 207.986V163.996L209.501 142L171.002 163.996Z" fill="url(#paint0_linear_1002_36)"/>
<path d="M248 163.996V207.986M247.998 164.012L209.501 186.008M209.501 186.008L209.5 230M209.501 186.008L171.002 164.012M171 207.986V163.996M171.002 163.996V207.986L209.5 229.983L247.998 207.986V163.996L209.501 142L171.002 163.996Z" stroke="#D0DEEA" stroke-width="2" stroke-linejoin="round"/>
<path d="M209.501 186.011L247.998 164.016V207.988L209.5 229.983L171.002 207.988V164.016L209.501 186.011Z" fill="#D0DEEA" fill-opacity="0.8"/>
<path d="M248 164V207.988M247.998 164.016L209.501 186.011M209.501 186.011L209.5 230M209.501 186.011L171.002 164.016M171.002 164V207.988L209.5 229.983L247.998 207.988V164M171 207.988V164" stroke="#D0DEEA" stroke-width="2" stroke-linejoin="round"/>
<rect x="196" y="138" width="4" height="32" rx="2" fill="#3E4462"/>
<path d="M194.553 142.193C197.276 144.081 201.015 143.403 202.902 140.68C204.79 137.956 204.112 134.218 201.389 132.331C198.666 130.443 194.927 131.12 193.04 133.844C191.152 136.567 191.83 140.305 194.553 142.193Z" fill="white" stroke="#3E4462" stroke-width="3"/>
<path d="M218.553 121.193C221.276 123.081 225.015 122.403 226.902 119.68C228.79 116.956 228.112 113.218 225.389 111.331C222.666 109.443 218.927 110.12 217.04 112.844C215.152 115.567 215.83 119.305 218.553 121.193Z" fill="white" stroke="#3E4462" stroke-width="3"/>
<rect x="220" y="121" width="4" height="37" rx="2" fill="#3E4462"/>
<path d="M206.553 102.193C209.276 104.081 213.015 103.403 214.902 100.68C216.79 97.9565 216.112 94.2184 213.389 92.3307C210.666 90.443 206.927 91.1205 205.04 93.8439C203.152 96.5674 203.83 100.305 206.553 102.193Z" fill="white" stroke="#3E4462" stroke-width="3"/>
<rect x="208" y="102" width="4" height="61" rx="2" fill="#3E4462"/>
</g>
<defs>
<linearGradient id="paint0_linear_1002_36" x1="209.5" y1="142" x2="209.5" y2="230" gradientUnits="userSpaceOnUse">
<stop stop-color="white"/>
<stop offset="1" stop-color="#D0DEEA"/>
</linearGradient>
</defs>
</svg>
