<svg width="352" height="404" viewBox="0 0 352 404" fill="none" xmlns="http://www.w3.org/2000/svg">
<path d="M351 100.495V155.483M350.998 100.515L303.001 128.011M303.001 128.011L303 183M303.001 128.011L255.002 100.515M255 155.483V100.495M255.002 100.495V155.483L303 182.979L350.998 155.483V100.495L303.001 73L255.002 100.495Z" stroke="#D0DEEA" stroke-width="2" stroke-linejoin="round"/>
<path d="M351 247.495V302.483M350.998 247.515L303.001 275.01M303.001 275.01L303 330M303.001 275.01L255.002 247.515M255 302.483V247.495M255.002 247.495V302.483L303 329.979L350.998 302.483V247.495L303.001 220L255.002 247.495Z" stroke="#D0DEEA" stroke-width="2" stroke-linejoin="round"/>
<path d="M96 101.245V155.733M95.9976 101.265L48.5012 128.51M48.5012 128.51L48.5004 183M48.5012 128.51L1.00245 101.265M1 155.733V101.245M1.00245 101.245V155.733L48.5004 182.979L95.9976 155.733V101.245L48.5012 74L1.00245 101.245Z" stroke="#D0DEEA" stroke-width="2" stroke-linejoin="round"/>
<path d="M96 247.245V301.733M95.9976 247.265L48.5012 274.51M48.5012 274.51L48.5004 329M48.5012 274.51L1.00245 247.265M1 301.733V247.245M1.00245 247.245V301.733L48.5004 328.979L95.9976 301.733V247.245L48.5012 220L1.00245 247.245Z" stroke="#D0DEEA" stroke-width="2" stroke-linejoin="round"/>
<path d="M224 28.2452V82.7329M223.998 28.2653L176.501 55.5105M176.501 55.5105L176.5 110M176.501 55.5105L129.002 28.2653M129 82.7329V28.2452M129.002 28.2452V82.7329L176.5 109.979L223.998 82.7329V28.2452L176.501 1L129.002 28.2452Z" stroke="#D0DEEA" stroke-width="2" stroke-linejoin="round"/>
<path d="M224 321.245V375.733M223.998 321.265L176.501 348.51M176.501 348.51L176.5 403M176.501 348.51L129.002 321.265M129 375.733V321.245M129.002 321.245V375.733L176.5 402.979L223.998 375.733V321.245L176.501 294L129.002 321.245Z" stroke="#D0DEEA" stroke-width="2" stroke-linejoin="round"/>
<path d="M177 117.487C177 132.906 177 141.551 177 156.971M257.224 275.31C257.224 275.31 228.827 259.077 210.631 248.676" stroke="#D0DEEA" stroke-width="2" stroke-linejoin="round" stroke-dasharray="4 4"/>
<path d="M176 205C172.1 205 169 208.1 169 212C169 215.2 171.1 217.8 174 218.7V226C174 227.1 174.9 228 176 228C177.1 228 178 227.1 178 226V218.7C180.9 217.8 183 215.2 183 212C183 208.1 179.9 205 176 205ZM176 215C174.3 215 173 213.6 173 212C173 210.3 174.3 209 176 209C177.7 209 179 210.3 179 212C179 213.6 177.7 215 176 215ZM207 189C203.1 189 200 192.1 200 196C200 199.2 202.1 201.8 205 202.7V210.8L196.9 214.9C196.6 211.8 195.5 208.9 194 206.3V184C194 174.1 185.9 166 176 166C166.1 166 158 174.1 158 184V206.2C157.8 206.5 157.7 206.7 157.5 207L151.2 201.1C151.7 200.2 151.9 199.1 151.9 198C151.9 194.1 148.8 191 144.9 191C141 191 137.9 194.1 137.9 198C137.9 201.9 141 205 144.9 205C146.2 205 147.4 204.6 148.4 204L155.8 210.9C155.4 212.2 155.1 213.6 155 214.9H144.7C143.8 212 141.1 209.9 138 209.9C134.1 209.9 131 213 131 216.9C131 220.8 134.1 223.9 138 223.9C141.2 223.9 143.8 221.8 144.7 218.9H155.1C156.1 229.5 165.1 237.9 176 237.9C176.6 237.9 177.2 237.9 177.8 237.8L181.3 243.9C181.4 244.1 181.5 244.2 181.6 244.3C181.7 244.4 181.8 244.5 181.9 244.6C181.9 244.6 182 244.6 182 244.7C182.1 244.8 182.2 244.8 182.3 244.8H182.4C182.5 244.8 182.7 244.9 182.9 244.9H194.2C195.1 247.8 197.8 249.9 200.9 249.9C204.8 249.9 207.9 246.8 207.9 242.9C207.9 239 204.8 235.9 200.9 235.9C197.7 235.9 195.1 238 194.2 240.9H184.2L182 237C190 234.6 196 227.7 196.9 219.2L207.9 213.7C207.9 213.7 208 213.7 208 213.6C208.1 213.6 208.1 213.5 208.2 213.5C208.3 213.5 208.3 213.4 208.4 213.4L208.5 213.3C208.5 213.3 208.6 213.2 208.6 213.1C208.6 213 208.7 213 208.7 212.9C208.7 212.8 208.8 212.8 208.8 212.7C208.8 212.6 208.9 212.6 208.9 212.5C208.9 212.4 208.9 212.4 209 212.3C209 212.2 209 212.2 209 212.1C209 212 209 212 209 211.9V211.8V202.5C211.9 201.6 214 199 214 195.8C214 192.1 210.9 189 207 189ZM145 201C143.3 201 142 199.6 142 198C142 196.3 143.3 195 145 195C146.7 195 148 196.3 148 198C148 199.6 146.7 201 145 201ZM138 220C136.3 220 135 218.6 135 217C135 215.3 136.3 214 138 214C139.7 214 141 215.3 141 217C141 218.6 139.7 220 138 220ZM201 240C202.7 240 204 241.3 204 243C204 244.6 202.7 246 201 246C199.3 246 198 244.6 198 243C198 241.3 199.3 240 201 240ZM162 184C162 176.3 168.3 170 176 170C183.7 170 190 176.3 190 184V201.4C188.2 199.8 186.2 198.5 184 197.6V184C184 179.6 180.4 176 176 176C171.6 176 168 179.6 168 184V197.6C165.8 198.5 163.8 199.8 162 201.4V184ZM180 184V196.4C178.7 196.2 177.4 196 176 196C174.6 196 173.3 196.1 172 196.4V184C172 181.8 173.8 180 176 180C178.2 180 180 181.8 180 184ZM176 234C166.6 234 159 226.4 159 217C159 207.6 166.6 200 176 200C185.4 200 193 207.6 193 217C193 226.4 185.4 234 176 234ZM207 199C205.3 199 204 197.6 204 196C204 194.3 205.3 193 207 193C208.7 193 210 194.3 210 196C210 197.6 208.7 199 207 199Z" fill="#3E4462"/>
<path d="M177 255.487V294.971" stroke="#D0DEEA" stroke-width="2" stroke-linejoin="round" stroke-dasharray="8 6"/>
<path d="M122.224 195.31C122.224 195.31 93.8266 179.077 75.631 168.676" stroke="#D0DEEA" stroke-width="2" stroke-linejoin="round" stroke-dasharray="4 4"/>
<path d="M226 197.625L275 169.616" stroke="#D0DEEA" stroke-width="2" stroke-linejoin="round" stroke-dasharray="4 4"/>
<path d="M96 270.625L145 242.616" stroke="#D0DEEA" stroke-width="2" stroke-linejoin="round" stroke-dasharray="4 4"/>
<path d="M173.362 142.102C176.539 144.305 180.9 143.514 183.102 140.337C185.305 137.159 184.514 132.798 181.337 130.596C178.16 128.394 173.798 129.184 171.596 132.361C169.394 135.539 170.184 139.9 173.362 142.102Z" fill="#F99201" stroke="white" stroke-width="2"/>
<path d="M173.526 278.102C176.703 280.305 181.064 279.514 183.266 276.337C185.469 273.159 184.678 268.798 181.501 266.596C178.324 264.394 173.962 265.184 171.76 268.361C169.558 271.539 170.348 275.9 173.526 278.102Z" fill="#F99201" stroke="white" stroke-width="2"/>
<path d="M221.231 263.102C224.409 265.305 228.77 264.514 230.972 261.337C233.174 258.159 232.384 253.798 229.206 251.596C226.029 249.394 221.668 250.184 219.466 253.361C217.263 256.539 218.054 260.9 221.231 263.102Z" fill="#5DC8F0" stroke="white" stroke-width="2"/>
<path d="M241.231 191.102C244.409 193.305 248.77 192.514 250.972 189.337C253.174 186.159 252.384 181.798 249.206 179.596C246.029 177.394 241.668 178.184 239.466 181.361C237.263 184.539 238.054 188.9 241.231 191.102Z" fill="#A1D10E" stroke="white" stroke-width="2"/>
<path d="M120.231 260.102C123.409 262.305 127.77 261.514 129.972 258.337C132.174 255.159 131.384 250.798 128.206 248.596C125.029 246.394 120.668 247.184 118.466 250.361C116.263 253.539 117.054 257.9 120.231 260.102Z" fill="#A1D10E" stroke="white" stroke-width="2"/>
<path d="M103.231 192.102C106.409 194.305 110.77 193.514 112.972 190.337C115.174 187.159 114.384 182.798 111.206 180.596C108.029 178.394 103.668 179.184 101.466 182.361C99.2634 185.539 100.054 189.9 103.231 192.102Z" fill="#5DC8F0" stroke="white" stroke-width="2"/>
</svg>
