<svg width="45" height="48" viewBox="0 0 45 48" fill="none" xmlns="http://www.w3.org/2000/svg">
<path fill-rule="evenodd" clip-rule="evenodd" d="M31.9114 36.5853C37.9256 35.8671 43.1622 32.1615 43.8204 28.7755C44.8574 23.4417 44.7718 15.7592 44.7718 15.7592C44.7718 5.3465 37.9497 2.29439 37.9497 2.29439C34.5099 0.714539 28.6032 0.0501703 22.4667 0H22.3159C16.1794 0.0501703 10.2766 0.714539 6.83658 2.29439C6.83658 2.29439 0.0141915 5.3465 0.0141915 15.7592C0.0141915 16.3904 0.0109288 17.0544 0.00753221 17.7456C-0.00190075 19.6652 -0.0123663 21.7949 0.0431558 24.0179C0.290904 34.2009 1.91006 44.2368 11.325 46.7287C15.666 47.8777 19.3931 48.1182 22.3948 47.9532C27.8383 47.6514 30.894 46.0106 30.894 46.0106L30.7145 42.0611C30.7145 42.0611 26.8245 43.2877 22.4558 43.1382C18.1275 42.9897 13.5581 42.6714 12.858 37.3572C12.7934 36.8904 12.7611 36.3913 12.7611 35.8671C12.7611 35.8671 17.01 36.9057 22.3948 37.1524C25.6874 37.3034 28.7752 36.9595 31.9114 36.5853ZM36.7246 29.1749V16.5669C36.7246 13.9901 36.0685 11.9425 34.7509 10.4275C33.3917 8.91259 31.6119 8.13599 29.4029 8.13599C26.8465 8.13599 24.9108 9.11845 23.6312 11.0836L22.3868 13.1693L21.1426 11.0836C19.8628 9.11845 17.9271 8.13599 15.371 8.13599C13.1617 8.13599 11.3819 8.91259 10.0229 10.4275C8.70504 11.9425 8.04895 13.9901 8.04895 16.5669V29.1749H13.044V16.9375C13.044 14.3579 14.1294 13.0485 16.3004 13.0485C18.7008 13.0485 19.9041 14.6018 19.9041 17.673V24.3713H24.8697V17.673C24.8697 14.6018 26.0728 13.0485 28.4732 13.0485C30.6442 13.0485 31.7296 14.3579 31.7296 16.9375V29.1749H36.7246Z" fill="black"/>
</svg>
