<svg width="48" height="43" viewBox="0 0 48 43" fill="none" xmlns="http://www.w3.org/2000/svg">
<path d="M48 21.8067C48 18.8964 45.638 16.5343 42.7276 16.5343C41.2935 16.5343 40.0281 17.0826 39.1002 18.0106C35.5149 15.4376 30.5378 13.7505 25.0545 13.5396L27.4587 2.27769L35.2619 3.92268C35.3462 5.90511 36.9912 7.50793 39.0158 7.50793C41.0826 7.50793 42.7698 5.82076 42.7698 3.75397C42.7698 1.68718 41.0826 0 39.0158 0C37.5395 0 36.2742 0.843587 35.6837 2.10897L26.9525 0.253079C26.6995 0.210899 26.4464 0.253077 26.2355 0.379615C26.0246 0.506153 25.8981 0.71705 25.8137 0.970127L23.1564 13.5396C17.5466 13.7083 12.5272 15.3533 8.89982 18.0106C7.97188 17.1248 6.66432 16.5343 5.27241 16.5343C2.36204 16.5343 0 18.8964 0 21.8067C0 23.9579 1.26538 25.7716 3.12127 26.6152C3.03691 27.1213 2.99473 27.6697 2.99473 28.218C2.99473 36.3164 12.4007 42.8542 24.0422 42.8542C35.6837 42.8542 45.0896 36.3164 45.0896 28.218C45.0896 27.6697 45.0475 27.1635 44.9631 26.6574C46.6924 25.8138 48 23.9579 48 21.8067ZM11.9367 25.5607C11.9367 23.4939 13.6239 21.8067 15.6907 21.8067C17.7575 21.8067 19.4446 23.4939 19.4446 25.5607C19.4446 27.6275 17.7575 29.3147 15.6907 29.3147C13.6239 29.3147 11.9367 27.6275 11.9367 25.5607ZM32.8998 35.4728C30.3269 38.0458 25.4341 38.2145 24 38.2145C22.5659 38.2145 17.6309 38.0036 15.1002 35.4728C14.7206 35.0932 14.7206 34.4605 15.1002 34.0809C15.4798 33.7013 16.1125 33.7013 16.4921 34.0809C18.0949 35.6837 21.5536 36.2743 24.0422 36.2743C26.5308 36.2743 29.9473 35.6837 31.5923 34.0809C31.9719 33.7013 32.6046 33.7013 32.9842 34.0809C33.2794 34.5027 33.2794 35.0932 32.8998 35.4728ZM32.225 29.3147C30.1582 29.3147 28.471 27.6275 28.471 25.5607C28.471 23.4939 30.1582 21.8067 32.225 21.8067C34.2917 21.8067 35.9789 23.4939 35.9789 25.5607C35.9789 27.6275 34.2917 29.3147 32.225 29.3147Z" fill="black"/>
</svg>
