<svg width="48" height="48" viewBox="0 0 48 48" fill="none" xmlns="http://www.w3.org/2000/svg">
<path d="M10.0847 30.3324C10.0847 33.1076 7.81758 35.3747 5.04234 35.3747C2.2671 35.3747 0 33.1076 0 30.3324C0 27.5571 2.2671 25.29 5.04234 25.29H10.0847V30.3324Z" fill="black"/>
<path d="M12.6253 30.3324C12.6253 27.5571 14.8924 25.29 17.6676 25.29C20.4429 25.29 22.71 27.5571 22.71 30.3324V42.9578C22.71 45.733 20.4429 48.0001 17.6676 48.0001C14.8924 48.0001 12.6253 45.733 12.6253 42.9578V30.3324Z" fill="black"/>
<path d="M17.6676 10.0847C14.8924 10.0847 12.6253 7.81758 12.6253 5.04234C12.6253 2.2671 14.8924 0 17.6676 0C20.4429 0 22.71 2.2671 22.71 5.04234V10.0847H17.6676Z" fill="black"/>
<path d="M17.6678 12.6252C20.443 12.6252 22.7101 14.8923 22.7101 17.6676C22.7101 20.4428 20.443 22.7099 17.6678 22.7099H5.04235C2.2671 22.7099 0 20.4428 0 17.6676C0 14.8923 2.2671 12.6252 5.04235 12.6252H17.6678Z" fill="black"/>
<path d="M37.9155 17.6676C37.9155 14.8923 40.1826 12.6252 42.9578 12.6252C45.733 12.6252 48.0001 14.8923 48.0001 17.6676C48.0001 20.4428 45.733 22.7099 42.9578 22.7099H37.9155V17.6676Z" fill="black"/>
<path d="M35.3748 17.6678C35.3748 20.443 33.1077 22.7101 30.3324 22.7101C27.5572 22.7101 25.2901 20.443 25.2901 17.6678V5.04235C25.2901 2.2671 27.5572 0 30.3324 0C33.1077 0 35.3748 2.2671 35.3748 5.04235V17.6678Z" fill="black"/>
<path d="M30.3325 37.9154C33.1077 37.9154 35.3749 40.1825 35.3749 42.9577C35.3749 45.733 33.1077 48 30.3325 48C27.5573 48 25.2902 45.733 25.2902 42.9577V37.9154H30.3325Z" fill="black"/>
<path d="M30.3324 35.3747C27.5572 35.3747 25.2901 33.1076 25.2901 30.3324C25.2901 27.5571 27.5572 25.29 30.3324 25.29H42.9578C45.7331 25.29 48.0002 27.5571 48.0002 30.3324C48.0002 33.1076 45.7331 35.3747 42.9578 35.3747H30.3324Z" fill="black"/>
</svg>
