<svg width="48" height="42" viewBox="0 0 48 42" fill="none" xmlns="http://www.w3.org/2000/svg">
<path fill-rule="evenodd" clip-rule="evenodd" d="M15.096 42C33.2088 42 43.116 25.8396 43.116 11.8268C43.116 11.3668 43.116 10.9094 43.0872 10.4545C45.0144 8.95554 46.6776 7.09475 48 4.96519C46.2048 5.82322 44.2968 6.38662 42.3456 6.63473C44.4 5.30892 45.9384 3.22587 46.6752 0.768081C44.7408 2.00344 42.6264 2.87439 40.4208 3.34217C36.6912 -0.927302 30.4536 -1.13406 26.4864 2.88214C23.9304 5.47173 22.8432 9.33287 23.6376 13.0157C15.72 12.5867 8.3424 8.56012 3.3408 1.93624C0.7272 6.78204 2.064 12.9795 6.3912 16.0911C4.824 16.042 3.2904 15.5872 1.92 14.7653V14.8997C1.9224 19.9471 5.2272 24.2941 9.8208 25.2943C8.3712 25.7207 6.8496 25.7827 5.376 25.4752C6.6648 29.7963 10.3632 32.7555 14.5752 32.8408C11.088 35.7922 6.78 37.3946 2.3448 37.3894C1.5624 37.3868 0.78 37.3377 0 37.2369C4.5048 40.3486 9.744 42 15.096 41.9922" fill="black"/>
</svg>
