<svg width="1255" height="492" viewBox="0 0 1255 492" fill="none" xmlns="http://www.w3.org/2000/svg">
<path d="M1197.44 363.856C1199.26 365.115 1201.75 364.664 1203.01 362.849C1204.27 361.033 1203.81 358.54 1202 357.281C1200.18 356.021 1197.69 356.472 1196.43 358.288C1195.17 360.103 1195.62 362.596 1197.44 363.856Z" fill="#5DC8F0"/>
<path d="M935.439 388.856C937.256 390.115 939.749 389.664 941.008 387.849C942.266 386.033 941.813 383.54 939.996 382.281C938.179 381.021 935.685 381.472 934.427 383.288C933.168 385.103 933.621 387.596 935.439 388.856Z" fill="#A1D10E"/>
<path d="M168.29 262.856C170.107 264.115 172.601 263.664 173.859 261.849C175.118 260.033 174.665 257.54 172.847 256.281C171.03 255.021 168.537 255.472 167.278 257.288C166.02 259.103 166.473 261.596 168.29 262.856Z" fill="#5DC8F0"/>
<path d="M1128.29 190.856C1130.11 192.115 1132.6 191.664 1133.86 189.849C1135.12 188.033 1134.66 185.54 1132.85 184.281C1131.03 183.021 1128.54 183.472 1127.28 185.288C1126.02 187.103 1126.47 189.596 1128.29 190.856Z" fill="#F99201"/>
<path d="M1242.26 103.164C1245.17 105.179 1249.16 104.458 1251.17 101.554C1253.18 98.6497 1252.46 94.6624 1249.55 92.6478C1246.65 90.6332 1242.66 91.3542 1240.64 94.2583C1238.63 97.1623 1239.36 101.15 1242.26 103.164Z" fill="#F89203"/>
<path d="M5.20263 246.002C8.07594 247.994 12.0183 247.281 14.0082 244.41C15.9981 241.539 15.282 237.598 12.4087 235.606C9.53534 233.614 5.59293 234.327 3.60304 237.198C1.61316 240.069 2.32932 244.011 5.20263 246.002Z" fill="#F89203"/>
<path d="M151.21 11.3314C153.536 12.9431 156.726 12.3663 158.336 10.043C159.947 7.71979 159.367 4.5299 157.042 2.91822C154.717 1.30653 151.526 1.88336 149.916 4.20661C148.305 6.52985 148.885 9.71975 151.21 11.3314Z" fill="#A1D211"/>
<path d="M142.21 488.331C144.536 489.943 147.726 489.366 149.336 487.043C150.947 484.72 150.367 481.53 148.042 479.918C145.717 478.307 142.526 478.883 140.916 481.207C139.305 483.53 139.885 486.72 142.21 488.331Z" fill="#A1D211"/>
</svg>
