<?xml version="1.0" standalone="no"?>
<!DOCTYPE svg PUBLIC "-//W3C//DTD SVG 20010904//EN"
 "http://www.w3.org/TR/2001/REC-SVG-20010904/DTD/svg10.dtd">
<svg version="1.0" xmlns="http://www.w3.org/2000/svg"
 width="413.000000pt" height="413.000000pt" viewBox="0 0 413.000000 413.000000"
 preserveAspectRatio="xMidYMid meet">
<metadata>
Created by potrace 1.14, written by Peter Selinger 2001-2017
</metadata>
<g transform="translate(0.000000,413.000000) scale(0.100000,-0.100000)"
fill="#000000" stroke="none">
<path d="M2625 4114 c-108 -19 -233 -58 -330 -103 -259 -121 -481 -356 -629
-664 -94 -197 -115 -275 -166 -602 -42 -271 -35 -231 -86 -485 -3 -14 -16 -74
-30 -135 -14 -60 -27 -117 -29 -125 -2 -8 -12 -53 -24 -100 -61 -254 -101
-423 -101 -426 0 -2 6 -1 12 1 7 3 36 7 63 9 82 7 169 17 192 22 19 4 24 13
38 74 1 3 4 19 8 35 4 17 9 40 12 53 2 13 6 31 9 40 3 9 7 28 10 42 3 14 25
122 50 240 25 118 54 267 65 330 11 63 22 124 25 135 2 11 7 45 11 75 4 30 9
64 11 75 2 11 11 65 20 120 31 197 34 213 50 278 44 172 178 419 304 558 54
60 165 149 241 193 26 15 82 40 126 55 374 137 790 48 1064 -228 223 -224 327
-525 295 -855 -3 -37 -8 -71 -10 -75 -2 -3 -7 -23 -10 -44 -16 -99 -102 -277
-192 -397 l-53 -70 67 -57 c36 -32 77 -68 90 -80 14 -13 28 -23 32 -23 11 0
54 52 113 138 160 236 229 469 222 757 -7 347 -129 637 -370 881 -197 200
-446 324 -724 362 -97 14 -287 11 -376 -4z"/>
<path d="M1257 3645 c-1 -2 -36 -5 -77 -9 -426 -35 -829 -315 -1025 -711 -101
-205 -130 -329 -130 -560 0 -140 4 -175 25 -270 7 -27 13 -57 15 -65 12 -54
71 -199 111 -271 98 -179 233 -330 390 -437 250 -169 545 -236 914 -208 84 6
189 22 257 39 24 6 190 64 408 142 139 49 317 108 455 149 155 45 641 176 657
176 9 0 13 6 10 14 -6 16 -112 170 -141 207 l-21 25 -100 -28 c-343 -96 -696
-210 -1055 -341 -314 -114 -373 -127 -595 -132 -333 -7 -574 81 -778 282 -159
157 -259 361 -291 588 -60 439 185 871 603 1062 69 31 189 70 250 79 68 11
255 10 331 -1 47 -8 87 -11 89 -9 5 5 59 238 56 241 -11 14 -344 49 -358 38z"/>
<path d="M2133 3358 c-9 -15 -113 -239 -113 -245 0 -11 437 -427 566 -540 96
-83 149 -130 158 -138 9 -9 66 -58 186 -158 217 -183 276 -246 365 -388 232
-371 267 -703 109 -1039 -143 -302 -432 -527 -740 -576 -21 -3 -42 -8 -46 -10
-4 -2 -55 -4 -115 -5 -96 0 -127 2 -209 16 -33 5 -176 46 -193 55 -9 5 -50 25
-91 45 -230 113 -406 313 -501 572 -12 32 -22 59 -23 60 -3 3 -225 -65 -236
-72 -11 -7 35 -136 81 -227 56 -113 140 -229 233 -322 100 -100 105 -104 194
-165 150 -102 333 -174 523 -206 119 -20 368 -13 475 14 390 96 693 336 868
687 43 86 90 215 102 278 59 308 27 564 -107 843 -61 128 -191 323 -272 410
-34 36 -147 138 -252 227 -254 216 -380 332 -688 638 -143 142 -261 258 -263
258 -1 0 -6 -6 -11 -12z"/>
</g>
</svg>
