<svg width="360" height="714" viewBox="0 0 360 714" fill="none" xmlns="http://www.w3.org/2000/svg">
<g filter="url(#filter0_i)">
<path fill-rule="evenodd" clip-rule="evenodd" d="M1 149.422C1 148.817 1.49032 148.327 2.09543 148.327H4.84061V200.45H2.09543C1.49044 200.45 1 199.959 1 199.355L1 149.422Z" fill="#13A4D9"/>
</g>
<path fill-rule="evenodd" clip-rule="evenodd" d="M1 149.422C1 148.817 1.49032 148.327 2.09543 148.327H4.84061V200.45H2.09543C1.49044 200.45 1 199.959 1 199.355L1 149.422Z" stroke="white" stroke-width="0.522174"/>
<g filter="url(#filter1_i)">
<path fill-rule="evenodd" clip-rule="evenodd" d="M1 214.712C1 214.108 1.49032 213.617 2.09543 213.617L4.84061 213.617V265.74H2.09543C1.49044 265.74 1 265.249 1 264.645V214.712Z" fill="#13A4D9"/>
</g>
<path fill-rule="evenodd" clip-rule="evenodd" d="M1 214.712C1 214.108 1.49032 213.617 2.09543 213.617L4.84061 213.617V265.74H2.09543C1.49044 265.74 1 265.249 1 264.645V214.712Z" stroke="white" stroke-width="0.522174"/>
<g filter="url(#filter2_i)">
<path fill-rule="evenodd" clip-rule="evenodd" d="M1 98.3983C1 97.7927 1.49032 97.3018 2.09543 97.3018H4.84061V125.832H2.09543C1.49044 125.832 1 125.343 1 124.735V98.3983Z" fill="#13A4D9"/>
</g>
<path fill-rule="evenodd" clip-rule="evenodd" d="M1 98.3983C1 97.7927 1.49032 97.3018 2.09543 97.3018H4.84061V125.832H2.09543C1.49044 125.832 1 125.343 1 124.735V98.3983Z" stroke="white" stroke-width="0.522174"/>
<g filter="url(#filter3_ii)">
<path fill-rule="evenodd" clip-rule="evenodd" d="M355.159 164.787H357.63C358.387 164.787 359 165.399 359 166.157V248.459C359 249.216 358.387 249.829 357.63 249.829H355.159V164.787Z" fill="#0AA5DE"/>
</g>
<path fill-rule="evenodd" clip-rule="evenodd" d="M355.159 164.787H357.63C358.387 164.787 359 165.399 359 166.157V248.459C359 249.216 358.387 249.829 357.63 249.829H355.159V164.787Z" stroke="white" stroke-width="0.522174"/>
<g filter="url(#filter4_ii)">
<path fill-rule="evenodd" clip-rule="evenodd" d="M3.74329 55.8781C3.74329 25.5765 28.3082 1.01221 58.6119 1.01221H301.388C331.691 1.01221 356.257 25.5775 356.257 55.8781V658.855C356.257 689.156 331.692 713.721 301.388 713.721H58.6119C28.3088 713.721 3.74329 689.155 3.74329 658.855V55.8781Z" fill="#0AA5DE"/>
</g>
<path fill-rule="evenodd" clip-rule="evenodd" d="M3.74329 55.8781C3.74329 25.5765 28.3082 1.01221 58.6119 1.01221H301.388C331.691 1.01221 356.257 25.5775 356.257 55.8781V658.855C356.257 689.156 331.692 713.721 301.388 713.721H58.6119C28.3088 713.721 3.74329 689.155 3.74329 658.855V55.8781Z" stroke="#0AA4DD" stroke-width="0.522174"/>
<g filter="url(#filter5_ii)">
<path d="M9.7782 56.4282C9.7782 29.1559 31.886 7.04736 59.1564 7.04736H300.843C328.114 7.04736 350.221 29.155 350.221 56.4282V658.304C350.221 685.577 328.113 707.685 300.843 707.685H59.1564C31.8856 707.685 9.7782 685.578 9.7782 658.304V56.4282Z" fill="white"/>
<path d="M9.7782 56.4282C9.7782 29.1559 31.886 7.04736 59.1564 7.04736H300.843C328.114 7.04736 350.221 29.155 350.221 56.4282V658.304C350.221 685.577 328.113 707.685 300.843 707.685H59.1564C31.8856 707.685 9.7782 685.578 9.7782 658.304V56.4282Z" fill="url(#paint0_linear)"/>
</g>
<path fill-rule="evenodd" clip-rule="evenodd" d="M350.221 69.5947H356.257V75.0813H350.221V69.5947Z" fill="#0AA4DD"/>
<path fill-rule="evenodd" clip-rule="evenodd" d="M3.74316 69.5947H9.77842V75.0813H3.74316V69.5947Z" fill="#0AA4DD"/>
<path fill-rule="evenodd" clip-rule="evenodd" d="M350.221 640.2H356.257V645.687H350.221V640.2Z" fill="#0AA5DE"/>
<path fill-rule="evenodd" clip-rule="evenodd" d="M3.74316 640.2H9.77842V645.687H3.74316V640.2Z" fill="#0AA5DE"/>
<g filter="url(#filter6_i)">
<path fill-rule="evenodd" clip-rule="evenodd" d="M143.652 33.9321C145.47 33.9321 146.944 32.4582 146.944 30.6401C146.944 28.822 145.47 27.3481 143.652 27.3481C141.833 27.3481 140.36 28.822 140.36 30.6401C140.36 32.4582 141.833 33.9321 143.652 33.9321Z" fill="#F0F0F0"/>
</g>
<g filter="url(#filter7_i)">
<path fill-rule="evenodd" clip-rule="evenodd" d="M143.651 32.8346C144.863 32.8346 145.846 31.852 145.846 30.6399C145.846 29.4279 144.863 28.4453 143.651 28.4453C142.439 28.4453 141.457 29.4279 141.457 30.6399C141.457 31.852 142.439 32.8346 143.651 32.8346Z" fill="#D7D7D7"/>
</g>
<g filter="url(#filter8_i)">
<path fill-rule="evenodd" clip-rule="evenodd" d="M219.916 36.1265C222.946 36.1265 225.402 33.6701 225.402 30.6399C225.402 27.6098 222.946 25.1533 219.916 25.1533C216.885 25.1533 214.429 27.6098 214.429 30.6399C214.429 33.6701 216.885 36.1265 219.916 36.1265Z" fill="#F0F0F0"/>
</g>
<g filter="url(#filter9_i)">
<path fill-rule="evenodd" clip-rule="evenodd" d="M219.915 35.0293C222.34 35.0293 224.305 33.0641 224.305 30.64C224.305 28.2159 222.34 26.2507 219.915 26.2507C217.491 26.2507 215.526 28.2159 215.526 30.64C215.526 33.0641 217.491 35.0293 219.915 35.0293Z" fill="#D7D7D7"/>
</g>
<g filter="url(#filter10_i)">
<path fill-rule="evenodd" clip-rule="evenodd" d="M161.757 28.4453H198.517C199.729 28.4453 200.712 29.428 200.712 30.6399C200.712 31.8519 199.729 32.8346 198.517 32.8346H161.757C160.545 32.8346 159.563 31.8519 159.563 30.6399C159.563 29.428 160.545 28.4453 161.757 28.4453Z" fill="#F0F0F0"/>
</g>
<g filter="url(#filter11_i)">
<path fill-rule="evenodd" clip-rule="evenodd" d="M161.757 29.5427H198.517C199.123 29.5427 199.615 30.034 199.615 30.64C199.615 31.2461 199.123 31.7374 198.517 31.7374H161.757C161.151 31.7374 160.66 31.2461 160.66 30.64C160.66 30.034 161.151 29.5427 161.757 29.5427Z" fill="#D7D7D7"/>
</g>
<path d="M26.0002 54.0122C26.0002 37.4436 39.4317 24.0122 56.0002 24.0122H304C320.569 24.0122 334 37.4437 334 54.0122V661.012C334 677.581 320.569 691.012 304 691.012H56.0002C39.4317 691.012 26.0002 677.581 26.0002 661.012V54.0122Z" fill="#A1D10E"/>
<defs>
<filter id="filter0_i" x="0.738892" y="148.066" width="4.36279" height="52.6448" filterUnits="userSpaceOnUse" color-interpolation-filters="sRGB">
<feFlood flood-opacity="0" result="BackgroundImageFix"/>
<feBlend mode="normal" in="SourceGraphic" in2="BackgroundImageFix" result="shape"/>
<feColorMatrix in="SourceAlpha" type="matrix" values="0 0 0 0 0 0 0 0 0 0 0 0 0 0 0 0 0 0 127 0" result="hardAlpha"/>
<feOffset/>
<feGaussianBlur stdDeviation="3"/>
<feComposite in2="hardAlpha" operator="arithmetic" k2="-1" k3="1"/>
<feColorMatrix type="matrix" values="0 0 0 0 0 0 0 0 0 0 0 0 0 0 0 0 0 0 0.2 0"/>
<feBlend mode="normal" in2="shape" result="effect1_innerShadow"/>
</filter>
<filter id="filter1_i" x="0.738892" y="213.356" width="4.36279" height="52.6448" filterUnits="userSpaceOnUse" color-interpolation-filters="sRGB">
<feFlood flood-opacity="0" result="BackgroundImageFix"/>
<feBlend mode="normal" in="SourceGraphic" in2="BackgroundImageFix" result="shape"/>
<feColorMatrix in="SourceAlpha" type="matrix" values="0 0 0 0 0 0 0 0 0 0 0 0 0 0 0 0 0 0 127 0" result="hardAlpha"/>
<feOffset/>
<feGaussianBlur stdDeviation="3"/>
<feComposite in2="hardAlpha" operator="arithmetic" k2="-1" k3="1"/>
<feColorMatrix type="matrix" values="0 0 0 0 0 0 0 0 0 0 0 0 0 0 0 0 0 0 0.2 0"/>
<feBlend mode="normal" in2="shape" result="effect1_innerShadow"/>
</filter>
<filter id="filter2_i" x="0.738892" y="97.0408" width="4.36279" height="29.0525" filterUnits="userSpaceOnUse" color-interpolation-filters="sRGB">
<feFlood flood-opacity="0" result="BackgroundImageFix"/>
<feBlend mode="normal" in="SourceGraphic" in2="BackgroundImageFix" result="shape"/>
<feColorMatrix in="SourceAlpha" type="matrix" values="0 0 0 0 0 0 0 0 0 0 0 0 0 0 0 0 0 0 127 0" result="hardAlpha"/>
<feOffset/>
<feGaussianBlur stdDeviation="3"/>
<feComposite in2="hardAlpha" operator="arithmetic" k2="-1" k3="1"/>
<feColorMatrix type="matrix" values="0 0 0 0 0 0 0 0 0 0 0 0 0 0 0 0 0 0 0.2 0"/>
<feBlend mode="normal" in2="shape" result="effect1_innerShadow"/>
</filter>
<filter id="filter3_ii" x="354.898" y="164.526" width="4.36279" height="85.5643" filterUnits="userSpaceOnUse" color-interpolation-filters="sRGB">
<feFlood flood-opacity="0" result="BackgroundImageFix"/>
<feBlend mode="normal" in="SourceGraphic" in2="BackgroundImageFix" result="shape"/>
<feColorMatrix in="SourceAlpha" type="matrix" values="0 0 0 0 0 0 0 0 0 0 0 0 0 0 0 0 0 0 127 0" result="hardAlpha"/>
<feOffset/>
<feGaussianBlur stdDeviation="3"/>
<feComposite in2="hardAlpha" operator="arithmetic" k2="-1" k3="1"/>
<feColorMatrix type="matrix" values="0 0 0 0 0 0 0 0 0 0 0 0 0 0 0 0 0 0 0.2 0"/>
<feBlend mode="normal" in2="shape" result="effect1_innerShadow"/>
<feColorMatrix in="SourceAlpha" type="matrix" values="0 0 0 0 0 0 0 0 0 0 0 0 0 0 0 0 0 0 127 0" result="hardAlpha"/>
<feOffset/>
<feGaussianBlur stdDeviation="2"/>
<feComposite in2="hardAlpha" operator="arithmetic" k2="-1" k3="1"/>
<feColorMatrix type="matrix" values="0 0 0 0 1 0 0 0 0 1 0 0 0 0 1 0 0 0 1 0"/>
<feBlend mode="normal" in2="effect1_innerShadow" result="effect2_innerShadow"/>
</filter>
<filter id="filter4_ii" x="3.48218" y="0.751221" width="353.036" height="713.231" filterUnits="userSpaceOnUse" color-interpolation-filters="sRGB">
<feFlood flood-opacity="0" result="BackgroundImageFix"/>
<feBlend mode="normal" in="SourceGraphic" in2="BackgroundImageFix" result="shape"/>
<feColorMatrix in="SourceAlpha" type="matrix" values="0 0 0 0 0 0 0 0 0 0 0 0 0 0 0 0 0 0 127 0" result="hardAlpha"/>
<feOffset/>
<feGaussianBlur stdDeviation="3"/>
<feComposite in2="hardAlpha" operator="arithmetic" k2="-1" k3="1"/>
<feColorMatrix type="matrix" values="0 0 0 0 0 0 0 0 0 0 0 0 0 0 0 0 0 0 0.2 0"/>
<feBlend mode="normal" in2="shape" result="effect1_innerShadow"/>
<feColorMatrix in="SourceAlpha" type="matrix" values="0 0 0 0 0 0 0 0 0 0 0 0 0 0 0 0 0 0 127 0" result="hardAlpha"/>
<feOffset/>
<feGaussianBlur stdDeviation="2"/>
<feComposite in2="hardAlpha" operator="arithmetic" k2="-1" k3="1"/>
<feColorMatrix type="matrix" values="0 0 0 0 1 0 0 0 0 1 0 0 0 0 1 0 0 0 1 0"/>
<feBlend mode="normal" in2="effect1_innerShadow" result="effect2_innerShadow"/>
</filter>
<filter id="filter5_ii" x="9.7782" y="7.04736" width="340.443" height="704.638" filterUnits="userSpaceOnUse" color-interpolation-filters="sRGB">
<feFlood flood-opacity="0" result="BackgroundImageFix"/>
<feBlend mode="normal" in="SourceGraphic" in2="BackgroundImageFix" result="shape"/>
<feColorMatrix in="SourceAlpha" type="matrix" values="0 0 0 0 0 0 0 0 0 0 0 0 0 0 0 0 0 0 127 0" result="hardAlpha"/>
<feOffset/>
<feGaussianBlur stdDeviation="8"/>
<feComposite in2="hardAlpha" operator="arithmetic" k2="-1" k3="1"/>
<feColorMatrix type="matrix" values="0 0 0 0 0 0 0 0 0 0 0 0 0 0 0 0 0 0 0.1 0"/>
<feBlend mode="normal" in2="shape" result="effect1_innerShadow"/>
<feColorMatrix in="SourceAlpha" type="matrix" values="0 0 0 0 0 0 0 0 0 0 0 0 0 0 0 0 0 0 127 0" result="hardAlpha"/>
<feOffset dy="4"/>
<feGaussianBlur stdDeviation="6"/>
<feComposite in2="hardAlpha" operator="arithmetic" k2="-1" k3="1"/>
<feColorMatrix type="matrix" values="0 0 0 0 1 0 0 0 0 1 0 0 0 0 1 0 0 0 1 0"/>
<feBlend mode="normal" in2="effect1_innerShadow" result="effect2_innerShadow"/>
</filter>
<filter id="filter6_i" x="140.36" y="27.3481" width="6.58391" height="6.58391" filterUnits="userSpaceOnUse" color-interpolation-filters="sRGB">
<feFlood flood-opacity="0" result="BackgroundImageFix"/>
<feBlend mode="normal" in="SourceGraphic" in2="BackgroundImageFix" result="shape"/>
<feColorMatrix in="SourceAlpha" type="matrix" values="0 0 0 0 0 0 0 0 0 0 0 0 0 0 0 0 0 0 127 0" result="hardAlpha"/>
<feOffset/>
<feGaussianBlur stdDeviation="0.5"/>
<feComposite in2="hardAlpha" operator="arithmetic" k2="-1" k3="1"/>
<feColorMatrix type="matrix" values="0 0 0 0 0 0 0 0 0 0 0 0 0 0 0 0 0 0 0.05 0"/>
<feBlend mode="normal" in2="shape" result="effect1_innerShadow"/>
</filter>
<filter id="filter7_i" x="141.457" y="28.4453" width="4.38927" height="4.38927" filterUnits="userSpaceOnUse" color-interpolation-filters="sRGB">
<feFlood flood-opacity="0" result="BackgroundImageFix"/>
<feBlend mode="normal" in="SourceGraphic" in2="BackgroundImageFix" result="shape"/>
<feColorMatrix in="SourceAlpha" type="matrix" values="0 0 0 0 0 0 0 0 0 0 0 0 0 0 0 0 0 0 127 0" result="hardAlpha"/>
<feOffset/>
<feGaussianBlur stdDeviation="0.5"/>
<feComposite in2="hardAlpha" operator="arithmetic" k2="-1" k3="1"/>
<feColorMatrix type="matrix" values="0 0 0 0 1 0 0 0 0 1 0 0 0 0 1 0 0 0 0.363734 0"/>
<feBlend mode="normal" in2="shape" result="effect1_innerShadow"/>
</filter>
<filter id="filter8_i" x="214.429" y="25.1533" width="10.9732" height="10.9732" filterUnits="userSpaceOnUse" color-interpolation-filters="sRGB">
<feFlood flood-opacity="0" result="BackgroundImageFix"/>
<feBlend mode="normal" in="SourceGraphic" in2="BackgroundImageFix" result="shape"/>
<feColorMatrix in="SourceAlpha" type="matrix" values="0 0 0 0 0 0 0 0 0 0 0 0 0 0 0 0 0 0 127 0" result="hardAlpha"/>
<feOffset/>
<feGaussianBlur stdDeviation="0.5"/>
<feComposite in2="hardAlpha" operator="arithmetic" k2="-1" k3="1"/>
<feColorMatrix type="matrix" values="0 0 0 0 0 0 0 0 0 0 0 0 0 0 0 0 0 0 0.05 0"/>
<feBlend mode="normal" in2="shape" result="effect1_innerShadow"/>
</filter>
<filter id="filter9_i" x="215.526" y="26.2507" width="8.77855" height="8.77855" filterUnits="userSpaceOnUse" color-interpolation-filters="sRGB">
<feFlood flood-opacity="0" result="BackgroundImageFix"/>
<feBlend mode="normal" in="SourceGraphic" in2="BackgroundImageFix" result="shape"/>
<feColorMatrix in="SourceAlpha" type="matrix" values="0 0 0 0 0 0 0 0 0 0 0 0 0 0 0 0 0 0 127 0" result="hardAlpha"/>
<feOffset/>
<feGaussianBlur stdDeviation="0.5"/>
<feComposite in2="hardAlpha" operator="arithmetic" k2="-1" k3="1"/>
<feColorMatrix type="matrix" values="0 0 0 0 1 0 0 0 0 1 0 0 0 0 1 0 0 0 0.363734 0"/>
<feBlend mode="normal" in2="shape" result="effect1_innerShadow"/>
</filter>
<filter id="filter10_i" x="159.563" y="28.4453" width="41.1494" height="4.38927" filterUnits="userSpaceOnUse" color-interpolation-filters="sRGB">
<feFlood flood-opacity="0" result="BackgroundImageFix"/>
<feBlend mode="normal" in="SourceGraphic" in2="BackgroundImageFix" result="shape"/>
<feColorMatrix in="SourceAlpha" type="matrix" values="0 0 0 0 0 0 0 0 0 0 0 0 0 0 0 0 0 0 127 0" result="hardAlpha"/>
<feOffset/>
<feGaussianBlur stdDeviation="0.5"/>
<feComposite in2="hardAlpha" operator="arithmetic" k2="-1" k3="1"/>
<feColorMatrix type="matrix" values="0 0 0 0 0 0 0 0 0 0 0 0 0 0 0 0 0 0 0.05 0"/>
<feBlend mode="normal" in2="shape" result="effect1_innerShadow"/>
</filter>
<filter id="filter11_i" x="160.66" y="29.5427" width="38.9548" height="2.19464" filterUnits="userSpaceOnUse" color-interpolation-filters="sRGB">
<feFlood flood-opacity="0" result="BackgroundImageFix"/>
<feBlend mode="normal" in="SourceGraphic" in2="BackgroundImageFix" result="shape"/>
<feColorMatrix in="SourceAlpha" type="matrix" values="0 0 0 0 0 0 0 0 0 0 0 0 0 0 0 0 0 0 127 0" result="hardAlpha"/>
<feOffset/>
<feGaussianBlur stdDeviation="0.5"/>
<feComposite in2="hardAlpha" operator="arithmetic" k2="-1" k3="1"/>
<feColorMatrix type="matrix" values="0 0 0 0 1 0 0 0 0 1 0 0 0 0 1 0 0 0 0.363734 0"/>
<feBlend mode="normal" in2="shape" result="effect1_innerShadow"/>
</filter>
<linearGradient id="paint0_linear" x1="-160.443" y1="357.366" x2="390.389" y2="625.018" gradientUnits="userSpaceOnUse">
<stop stop-color="white" stop-opacity="0.01"/>
<stop offset="1" stop-opacity="0.03"/>
</linearGradient>
</defs>
</svg>
